<?xml version="1.0" standalone="no"?>
<!DOCTYPE svg PUBLIC "-//W3C//DTD SVG 20010904//EN"
 "http://www.w3.org/TR/2001/REC-SVG-20010904/DTD/svg10.dtd">
<svg version="1.0" xmlns="http://www.w3.org/2000/svg"
 width="500.000000pt" height="500.000000pt" viewBox="0 0 500.000000 500.000000"
 preserveAspectRatio="xMidYMid meet">
<metadata>
Created by potrace 1.11, written by Peter Selinger 2001-2013
</metadata>
<g transform="translate(0.000000,500.000000) scale(0.100000,-0.100000)"
fill="#000000" stroke="none">
<path d="M2597 3959 c-841 -60 -1345 -753 -1201 -1650 74 -465 293 -759 679
-912 162 -64 269 -81 515 -81 192 0 225 2 310 23 250 62 484 175 608 294 23
23 42 46 42 53 0 18 -121 265 -128 262 -232 -123 -353 -158 -568 -165 -123 -5
-161 -2 -210 12 -228 65 -377 278 -439 625 -20 116 -28 436 -14 570 33 317
146 540 306 600 152 58 341 32 398 -56 11 -16 47 -137 80 -267 l60 -237 238 0
237 0 0 43 c0 23 7 188 15 367 19 420 20 378 -12 386 -16 3 -81 21 -146 40
-164 49 -349 84 -502 94 -71 5 -137 9 -145 8 -8 0 -64 -4 -123 -9z"/>
</g>
</svg>
